# xmcd
# 
# Track frame offsets:
#   150
#   14292
#   28442
#   41285
#   57232
#   71720
#   90637
#   108237
#   121977
#   143062
#   158772
#   174702
#   193045
#   205325
# 
# Disc length: 3018 seconds
# 
# Revision: 1
# Processed by: cddbd v1.5.1PL2 Copyright (c) Steve Scherf et al.
# Submitted via: Synapstar 1.0 
# 
DISCID=c20bc80e
DTITLE=Various Artist - SD048 - Country Hits Today
DYEAR=1900
DGENRE=Country
TTITLE0=George Strait - Roundabout Way
TTITLE1=Trisha Yearwood - Perfect Love
TTITLE2=Garth Brooks - She's Gonna Make It
TTITLE3=Alan Jackson - A House With No Curtains
TTITLE4=Trace Adkins - Lonely Won't Leave Me Alone
TTITLE5=Mindy McCready - You'll Never Know
TTITLE6=Toby Keith - Dream Walkin'
TTITLE7=Tracy Lawrence - One Step Ahead Of The Storm
TTITLE8=Patty Loveless - To Have You Back
TTITLE9=Michael Peterson - Too Good To Be True
TTITLE10=Brooks and Dunn - Days Of Thunder
TTITLE11=Melodie Crittendon - Broken Road
TTITLE12=Chris Cummings - The Kind Of Heart That Breaks
TTITLE13=Ricochet - Connected At The Heart
EXTD=MediaType: Karaoke CD+G Producer: StarDisc
EXTT0=
EXTT1=
EXTT2=
EXTT3=
EXTT4=
EXTT5=
EXTT6=
EXTT7=
EXTT8=
EXTT9=
EXTT10=
EXTT11=
EXTT12=
EXTT13=
PLAYORDER=
